<svg width="220" height="220" viewBox="0 0 220 220" fill="none" xmlns="http://www.w3.org/2000/svg">
<g clip-path="url(#clip0_14_49)">
<rect width="220" height="220" rx="54" fill="black"/>
<path d="M188.5 43.3516V178.352C188.5 184.328 183.227 189.602 177.25 189.602C170.922 189.602 166 184.328 166 178.352V80.2656L118.891 150.578C114.672 156.906 104.477 156.906 100.258 150.578L53.5 80.2656V178C53.5 184.328 48.2266 189.25 42.25 189.25C35.9219 189.25 31 184.328 31 178V43C31 38.0781 34.1641 33.8594 38.7344 32.4531C43.6562 31.0469 48.5781 32.8047 51.3906 37.0234L109.75 124.211L167.758 37.0234C170.57 32.8047 175.492 31.0469 180.414 32.4531C184.984 33.8594 188.5 38.0781 188.5 43.3516Z" fill="white"/>
</g>
<defs>
<clipPath id="clip0_14_49">
<rect width="220" height="220" fill="white"/>
</clipPath>
</defs>
</svg>
